<svg width="20" height="22" viewBox="0 0 20 22" fill="none" xmlns="http://www.w3.org/2000/svg">
<path d="M9.49432 1C8.11243 1 6.99219 1.97937 6.99219 3.18749C6.99453 3.29244 7.00561 3.39716 7.02522 3.50072C7.06129 3.71749 7.27513 3.87749 7.52566 3.87524C7.57342 3.87519 7.6209 3.86929 7.66678 3.85772C8.86256 3.54842 10.1352 3.54842 11.3309 3.85772C11.4731 3.88848 11.6235 3.86461 11.7443 3.7921C11.8676 3.71835 11.95 3.60285 11.9715 3.47361C11.9895 3.3787 11.9995 3.28281 12.0015 3.18662C12.001 1.97851 10.8802 0.999508 9.49835 1C9.49699 1 9.49568 1 9.49432 1Z" fill="#F57C00"/>
<path d="M12.4978 18.5H6.49263C6.21625 18.5 5.99219 18.6959 5.99219 18.9375C5.99219 20.6289 7.56052 22 9.49521 22C11.4299 22 12.9982 20.6289 12.9982 18.9375C12.9982 18.6959 12.7742 18.5 12.4978 18.5Z" fill="#FFA000"/>
<path d="M18.823 16.9326C18.6648 16.6272 18.4657 16.286 18.2455 15.9097C16.8912 13.9041 16.1201 11.6388 15.9996 9.31219C15.9996 5.84457 13.8978 3.30008 10.647 2.83021C8.75 2.56365 6.81639 3.05645 5.38046 4.17245C3.79092 5.38552 2.90906 7.15883 2.9784 9.00244C2.93697 11.4398 2.16686 13.8253 0.744482 15.9219C0.529282 16.2929 0.333129 16.6307 0.176995 16.9317C-0.274048 17.8014 0.166674 18.826 1.16146 19.2204C1.42091 19.3233 1.70268 19.3759 1.98755 19.3747H17.0164C18.1087 19.3776 18.9968 18.6058 19 17.6509C19.0008 17.4032 18.9408 17.1583 18.8239 16.9326L18.823 16.9326Z" fill="#FFC107"/>
<path d="M2.82071 17.625C2.54433 17.625 2.32027 17.4291 2.32031 17.1874C2.32031 17.1194 2.33847 17.0523 2.37333 16.9915L2.53448 16.715C4.02929 14.4588 4.87203 11.9178 4.9896 9.31248C4.9896 7.0926 6.16961 4.5 9.49346 4.5C9.76984 4.5 9.99391 4.69589 9.99391 4.93751C9.99391 5.17914 9.76984 5.37503 9.49346 5.37503C6.24266 5.37503 5.99044 8.38853 5.99044 9.31253C5.87874 12.0571 4.99791 14.7357 3.42526 17.1132L3.26913 17.3835C3.18412 17.5318 3.01048 17.6253 2.82071 17.625Z" fill="#FFD54F"/>
<circle cx="16.0625" cy="3" r="3" fill="#FF5330"/>
</svg>
