<svg width="60" height="53" viewBox="0 0 60 53" fill="none" xmlns="http://www.w3.org/2000/svg">
<path d="M26.0863 2.98987L1.57824 45.436C1.13554 46.2025 0.902426 47.0721 0.902344 47.9573C0.902262 48.8424 1.13521 49.712 1.57777 50.4786C2.02033 51.2452 2.65691 51.8818 3.4235 52.3244C4.19009 52.767 5.05969 52.9999 5.94486 52.9999H54.9571C55.8423 52.9999 56.7119 52.767 57.4784 52.3244C58.245 51.8818 58.8816 51.2452 59.3242 50.4786C59.7667 49.712 59.9997 48.8424 59.9996 47.9573C59.9995 47.0721 59.7664 46.2025 59.3237 45.436L34.8183 2.98987C34.3758 2.2235 33.7394 1.5871 32.973 1.14464C32.2066 0.702175 31.3372 0.469238 30.4523 0.469238C29.5673 0.469238 28.698 0.702175 27.9316 1.14464C27.1652 1.5871 26.5288 2.2235 26.0863 2.98987Z" fill="#EE404C"/>
<path d="M30.7705 16.0815H30.1312C28.5572 16.0815 27.2812 17.3575 27.2812 18.9315V32.5536C27.2812 34.1275 28.5572 35.4035 30.1312 35.4035H30.7705C32.3444 35.4035 33.6204 34.1275 33.6204 32.5536V18.9315C33.6204 17.3575 32.3444 16.0815 30.7705 16.0815Z" fill="#FFF7ED"/>
<path d="M30.4508 46.2073C32.2013 46.2073 33.6204 44.7882 33.6204 43.0377C33.6204 41.2872 32.2013 39.8682 30.4508 39.8682C28.7003 39.8682 27.2812 41.2872 27.2812 43.0377C27.2812 44.7882 28.7003 46.2073 30.4508 46.2073Z" fill="#FFF7ED"/>
</svg>
