<svg width="61" height="61" viewBox="0 0 61 61" fill="none" xmlns="http://www.w3.org/2000/svg">
<path d="M30.5 61C47.3447 61 61 47.3447 61 30.5C61 13.6553 47.3447 0 30.5 0C13.6553 0 0 13.6553 0 30.5C0 47.3447 13.6553 61 30.5 61Z" fill="#10D75F"/>
<path d="M24.4648 43.1936L17.3131 36.2081C17.1584 36.0577 17.0354 35.8779 16.9514 35.6792C16.8675 35.4805 16.8242 35.2669 16.8242 35.0512C16.8242 34.8355 16.8675 34.6219 16.9514 34.4232C17.0354 34.2245 17.1584 34.0447 17.3131 33.8943L19.6847 31.5805C20.0027 31.2723 20.4282 31.1 20.8711 31.1C21.3139 31.1 21.7394 31.2723 22.0574 31.5805L26.3148 35.7422L38.255 17.5894C38.5014 17.2231 38.8805 16.967 39.3123 16.8751C39.7441 16.7833 40.1947 16.8629 40.5688 17.0972L43.3916 18.8704C43.576 18.9838 43.7357 19.133 43.8613 19.3093C43.987 19.4856 44.0759 19.6852 44.1229 19.8965C44.1699 20.1078 44.1739 20.3264 44.1349 20.5393C44.0958 20.7521 44.0144 20.955 43.8954 21.1358L29.7571 42.6373C29.4738 43.0581 29.1016 43.4118 28.6669 43.6733C28.2322 43.9348 27.7454 44.0978 27.2408 44.1508C26.7363 44.2039 26.2262 44.1457 25.7466 43.9803C25.267 43.8149 24.8294 43.5464 24.4648 43.1936Z" fill="white"/>
</svg>
