<svg width="9" height="15" viewBox="0 0 9 15" fill="none" xmlns="http://www.w3.org/2000/svg">
<path d="M4.2 0.47168C1.8804 0.47168 0 2.35207 0 4.67168C0 8.17168 3.5 8.87168 3.5 13.7717C3.5 14.1583 3.81337 14.4717 4.2 14.4717C4.58663 14.4717 4.9 14.1583 4.9 13.7717C4.9 8.87168 8.4 8.17168 8.4 4.67168C8.4 2.35207 6.5196 0.47168 4.2 0.47168ZM4.2 6.07168C3.42679 6.07168 2.8 5.44489 2.8 4.67168C2.8 3.89847 3.42679 3.27168 4.2 3.27168C4.97321 3.27168 5.6 3.89847 5.6 4.67168C5.6 5.44489 4.97321 6.07168 4.2 6.07168Z" fill="black"/>
</svg>
