<svg width="19" height="21" viewBox="0 0 19 21" fill="none" xmlns="http://www.w3.org/2000/svg">
<path d="M9.49432 1.85502e-07C8.11243 1.85502e-07 6.99219 0.979371 6.99219 2.18749C6.99453 2.29244 7.00561 2.39716 7.02522 2.50072C7.06129 2.71749 7.27513 2.87749 7.52566 2.87524C7.57342 2.87519 7.6209 2.86929 7.66678 2.85772C8.86256 2.54842 10.1352 2.54842 11.3309 2.85772C11.4731 2.88848 11.6235 2.86461 11.7443 2.7921C11.8676 2.71835 11.95 2.60285 11.9715 2.47361C11.9895 2.3787 11.9995 2.28281 12.0015 2.18662C12.001 0.978509 10.8802 -0.000492002 9.49835 1.85502e-07C9.49699 1.85502e-07 9.49568 1.85502e-07 9.49432 1.85502e-07Z" fill="#F57C00"/>
<path d="M12.4978 17.5H6.49263C6.21625 17.5 5.99219 17.6959 5.99219 17.9375C5.99219 19.6289 7.56052 21 9.49521 21C11.4299 21 12.9982 19.6289 12.9982 17.9375C12.9982 17.6959 12.7742 17.5 12.4978 17.5Z" fill="#FFA000"/>
<path d="M18.823 15.9326C18.6648 15.6272 18.4657 15.286 18.2455 14.9097C16.8912 12.9041 16.1201 10.6388 15.9996 8.31219C15.9996 4.84457 13.8978 2.30008 10.647 1.83021C8.75 1.56365 6.81639 2.05645 5.38046 3.17245C3.79092 4.38552 2.90906 6.15883 2.9784 8.00244C2.93697 10.4398 2.16686 12.8253 0.744482 14.9219C0.529282 15.2929 0.333129 15.6307 0.176995 15.9317C-0.274048 16.8014 0.166674 17.826 1.16146 18.2204C1.42091 18.3233 1.70268 18.3759 1.98755 18.3747H17.0164C18.1087 18.3776 18.9968 17.6058 19 16.6509C19.0008 16.4032 18.9408 16.1583 18.8239 15.9326L18.823 15.9326Z" fill="#FFC107"/>
<path d="M2.82071 16.625C2.54433 16.625 2.32027 16.4291 2.32031 16.1874C2.32031 16.1194 2.33847 16.0523 2.37333 15.9915L2.53448 15.715C4.02929 13.4588 4.87203 10.9178 4.9896 8.31248C4.9896 6.0926 6.16961 3.5 9.49346 3.5C9.76984 3.5 9.99391 3.69589 9.99391 3.93751C9.99391 4.17914 9.76984 4.37503 9.49346 4.37503C6.24266 4.37503 5.99044 7.38853 5.99044 8.31253C5.87874 11.0571 4.99791 13.7357 3.42526 16.1132L3.26913 16.3835C3.18412 16.5318 3.01048 16.6253 2.82071 16.625Z" fill="#FFD54F"/>
</svg>
