<svg width="10" height="11" viewBox="0 0 10 11" fill="none" xmlns="http://www.w3.org/2000/svg">
<path d="M4.52049 5.29863C5.24843 5.29863 5.87876 5.03755 6.39379 4.52244C6.90882 4.00742 7.1699 3.37725 7.1699 2.64923C7.1699 1.92147 6.90882 1.29122 6.39371 0.776022C5.8786 0.26108 5.24835 0 4.52049 0C3.79248 0 3.16231 0.26108 2.64728 0.776106C2.13226 1.29113 1.87109 1.92138 1.87109 2.64923C1.87109 3.37725 2.13226 4.0075 2.64737 4.52253C3.16248 5.03747 3.79273 5.29863 4.52049 5.29863Z" fill="black"/>
<path d="M9.15491 8.45843C9.14005 8.2441 9.11001 8.01029 9.06578 7.7634C9.02114 7.51465 8.96365 7.27951 8.89484 7.06458C8.82376 6.84244 8.72708 6.62307 8.60757 6.41285C8.48354 6.19465 8.33785 6.00465 8.17437 5.84831C8.00342 5.68475 7.79412 5.55324 7.55209 5.45732C7.3109 5.3619 7.04361 5.31356 6.75769 5.31356C6.64541 5.31356 6.53681 5.35963 6.32709 5.49617C6.19802 5.58035 6.04705 5.6777 5.87853 5.78537C5.73444 5.87718 5.53924 5.9632 5.29813 6.04108C5.0629 6.11719 4.82406 6.1558 4.58832 6.1558C4.35259 6.1558 4.11383 6.11719 3.87835 6.04108C3.63749 5.96328 3.44229 5.87726 3.29837 5.78545C3.13145 5.67879 2.98039 5.58144 2.84939 5.49609C2.63992 5.35955 2.53124 5.31348 2.41895 5.31348C2.13295 5.31348 1.86574 5.3619 1.62464 5.4574C1.38277 5.55316 1.17339 5.68466 1.00227 5.84839C0.838879 6.00482 0.693107 6.19474 0.569239 6.41285C0.449819 6.62307 0.353142 6.84236 0.281976 7.06467C0.213244 7.27959 0.155758 7.51465 0.111112 7.7634C0.0668854 8.00996 0.0368415 8.24385 0.0219874 8.45869C0.00738509 8.66916 0 8.88761 0 9.10824C0 9.68243 0.182529 10.1473 0.542468 10.4901C0.89796 10.8284 1.36834 11 1.94035 11H7.2368C7.80881 11 8.27902 10.8285 8.6346 10.4901C8.99462 10.1475 9.17715 9.6826 9.17715 9.10815C9.17706 8.88652 9.1696 8.6679 9.15491 8.45843Z" fill="black"/>
</svg>
