<svg width="19" height="19" viewBox="0 0 19 19" fill="none" xmlns="http://www.w3.org/2000/svg">
<path d="M16.7568 10.431C16.7997 10.1224 16.8226 9.81142 16.8252 9.5C16.8226 9.18858 16.7997 8.87763 16.7568 8.56901L18.8174 7.00151C18.9083 6.93049 18.9701 6.83014 18.9916 6.71861C19.0131 6.60709 18.9929 6.49177 18.9345 6.39351L16.9814 3.10653C16.9239 3.00851 16.8323 2.93365 16.7231 2.89535C16.614 2.85705 16.4944 2.85783 16.3857 2.89753L13.9541 3.84753C13.4493 3.46672 12.8942 3.15359 12.3037 2.91653L11.9327 0.399043C11.9165 0.287267 11.859 0.185066 11.7709 0.111608C11.6828 0.0381501 11.5702 -0.00151784 11.4541 4.44493e-05H7.54792C7.4319 -0.00151784 7.31928 0.0381501 7.23119 0.111608C7.14309 0.185066 7.08557 0.287267 7.06941 0.399043L6.69832 2.91653C6.10971 3.15728 5.55511 3.47014 5.04795 3.84753L2.61633 2.89753C2.50795 2.85535 2.38743 2.85334 2.27763 2.89186C2.16783 2.93038 2.07638 3.00677 2.02063 3.10653L0.0675195 6.39351C0.00775009 6.4914 -0.0133208 6.60711 0.00824718 6.71901C0.0298152 6.83091 0.0925452 6.93134 0.184706 7.00151L2.24524 8.56901C2.20269 8.87766 2.17986 9.18859 2.17688 9.5C2.17986 9.81141 2.20269 10.1223 2.24524 10.431L0.184706 11.9985C0.0937448 12.0695 0.031923 12.1699 0.0104281 12.2814C-0.0110668 12.3929 0.0091852 12.5082 0.0675195 12.6065L2.02063 15.8935C2.0782 15.9915 2.16977 16.0664 2.27893 16.1047C2.38809 16.143 2.5077 16.1422 2.61633 16.1025L5.04795 15.1525C5.55275 15.5333 6.10783 15.8464 6.69832 16.0835L7.06941 18.601C7.08557 18.7127 7.14309 18.8149 7.23119 18.8884C7.31928 18.9619 7.4319 19.0015 7.54792 19H11.4541C11.5702 19.0015 11.6828 18.9619 11.7709 18.8884C11.859 18.8149 11.9165 18.7127 11.9327 18.601L12.3037 16.0835C12.8923 15.8427 13.447 15.5299 13.9541 15.1525L16.3857 16.1025C16.4941 16.1446 16.6146 16.1467 16.7244 16.1081C16.8342 16.0696 16.9257 15.9932 16.9814 15.8935L18.9345 12.6065C18.9929 12.5082 19.0131 12.3929 18.9916 12.2814C18.9701 12.1699 18.9083 12.0695 18.8174 11.9985L16.7568 10.431ZM9.50103 12.825C8.82503 12.825 8.1642 12.63 7.60213 12.2646C7.04005 11.8993 6.60196 11.38 6.34327 10.7724C6.08457 10.1649 6.01689 9.49631 6.14877 8.85133C6.28065 8.20634 6.60618 7.61389 7.08418 7.14888C7.56219 6.68387 8.17121 6.3672 8.83422 6.2389C9.49724 6.11061 10.1845 6.17645 10.809 6.42811C11.4336 6.67977 11.9674 7.10595 12.3429 7.65274C12.7185 8.19953 12.919 8.84238 12.919 9.5C12.919 10.3818 12.5589 11.2276 11.9179 11.8511C11.2769 12.4747 10.4075 12.825 9.50103 12.825Z" fill="#606C80"/>
</svg>
