<svg width="30" height="30" viewBox="0 0 30 30" fill="none" xmlns="http://www.w3.org/2000/svg">
<g clip-path="url(#clip0_5171_13404)">
<path d="M2.5 11.25V6.25C2.5 2.80375 5.30375 0 8.75 0H21.25C24.6963 0 27.5 2.80375 27.5 6.25V11.25H21.25V7.5C21.25 6.81 20.6912 6.25 20 6.25C19.3088 6.25 18.75 6.81 18.75 7.5V11.25H2.5ZM21.25 13.75V21.25C21.25 21.9412 20.6912 22.5 20 22.5C19.3088 22.5 18.75 21.9412 18.75 21.25V13.75H2.5V23.75C2.5 27.1963 5.30375 30 8.75 30H21.25C24.6963 30 27.5 27.1963 27.5 23.75V13.75H21.25Z" fill="#458EF7"/>
</g>
<defs>
<clipPath id="clip0_5171_13404">
<rect width="30" height="30" fill="white"/>
</clipPath>
</defs>
</svg>
