<svg width="33" height="24" viewBox="0 0 33 24" fill="none" xmlns="http://www.w3.org/2000/svg">
<path d="M26.5911 8.75359C26.1417 4.07123 22.2433 0.397461 17.4438 0.397461C13.7301 0.397461 10.5501 2.60163 9.08462 5.76434C8.64335 5.62475 8.18359 5.52832 7.69618 5.52832C5.14613 5.52832 3.07845 7.59704 3.07845 10.146C3.07845 10.653 3.18004 11.1323 3.33088 11.5868C1.34734 12.7434 0 14.8676 0 17.3283C0 21.0123 2.98615 23.9984 6.67014 23.9984V23.9995H25.1401V23.9984C29.3916 23.9984 32.8354 20.5536 32.8354 16.3021C32.8354 12.5494 30.1468 9.43295 26.5911 8.75359ZM21.1494 18.4673C20.6651 18.9526 19.8811 18.9526 19.3967 18.4673L16.9082 15.9798L14.4516 18.4374C13.9683 18.9197 13.1874 18.9197 12.7041 18.4374C12.2218 17.9542 12.2218 17.1732 12.7041 16.6899L15.1607 14.2333L12.6732 11.7458C12.1889 11.2605 12.1889 10.4764 12.6732 9.99211C13.1575 9.50676 13.9416 9.50676 14.4259 9.99211L16.9134 12.4806L19.4028 9.99119C19.8861 9.50791 20.667 9.50791 21.1503 9.99119C21.6336 10.4745 21.6336 11.2565 21.1503 11.7387L18.6609 14.2283L21.1494 16.7157C21.6348 17.199 21.6348 17.985 21.1494 18.4673Z" fill="#E2574C"/>
</svg>
