<svg width="26" height="26" viewBox="0 0 26 26" fill="none" xmlns="http://www.w3.org/2000/svg">
<path d="M2.39357 9.6826H3.20947C4.21858 9.64538 4.21869 8.19645 3.20947 8.15918H2.39357C1.38451 8.1964 1.38436 9.64533 2.39357 9.6826Z" fill="#0CC405"/>
<path d="M23.606 16.3174H22.7901C21.781 16.3546 21.7808 17.8035 22.7901 17.8408H23.606C24.615 17.8035 24.6152 16.3546 23.606 16.3174Z" fill="#0CC405"/>
<path d="M8.91991 3.9712C9.34058 3.9712 9.68163 3.63016 9.68163 3.20949V2.39359C9.6444 1.38448 8.19548 1.38438 8.1582 2.39359V3.20949C8.1582 3.63016 8.4992 3.9712 8.91991 3.9712Z" fill="#0CC405"/>
<path d="M17.0801 22.0283C16.6594 22.0283 16.3184 22.3694 16.3184 22.79V23.6059C16.3556 24.615 17.8045 24.6151 17.8418 23.6059V22.79C17.8418 22.3694 17.5008 22.0283 17.0801 22.0283Z" fill="#0CC405"/>
<path d="M4.34228 5.42023C5.08124 6.10856 6.10727 5.08548 5.42112 4.34459L4.84592 3.76767C4.10701 3.07939 3.08089 4.10226 3.76709 4.84331L4.34228 5.42023Z" fill="#0CC405"/>
<path d="M21.6565 20.5802C20.9176 19.8919 19.8914 20.9148 20.5776 21.6558L21.1528 22.2327C21.8918 22.9211 22.9178 21.898 22.2317 21.1571L21.6565 20.5802Z" fill="#0CC405"/>
<path d="M25.7769 2.5314L23.4686 0.223105C23.1711 -0.0743684 22.6888 -0.0743684 22.3914 0.223105L19.3033 3.31114C17.411 1.9397 14.7415 2.10479 13.036 3.80833C13.036 3.80833 11.3077 5.53767 11.3075 5.53787C11.0095 5.83535 11.0096 6.31817 11.307 6.61559L19.3841 14.6924C19.6815 14.9896 20.1634 14.9898 20.4609 14.6928L22.1907 12.962C23.9024 11.2523 24.0659 8.5899 22.6883 6.6972L25.7768 3.60866C26.0743 3.31114 26.0743 2.82887 25.7769 2.5314ZM21.1131 11.8851L19.9229 13.0767L12.923 6.07706L14.1135 4.88514C15.4082 3.59211 17.5147 3.59205 18.8078 4.88361L21.1141 7.19277C22.4093 8.48636 22.4158 10.5841 21.1131 11.8851ZM21.6529 5.57642L20.4243 4.34635L22.9297 1.83905L24.1608 3.06942L21.6529 5.57642Z" fill="#0CC405"/>
<path d="M14.6536 19.345C14.6536 19.345 16.4226 17.5771 16.4227 17.577C17.3522 16.6472 17.3621 15.132 16.4226 14.1922C15.4913 13.2608 13.9718 13.2568 13.0357 14.193L11.27 15.9615L10.039 14.7305C10.039 14.7305 11.8088 12.9617 11.8089 12.9617C12.7404 12.03 12.7466 10.5148 11.8089 9.57684C10.8764 8.6443 9.35643 8.64308 8.42293 9.57664L6.65342 11.3451C6.3622 11.0167 5.85028 10.994 5.53909 11.3071L3.80929 13.038C2.09773 14.7475 1.93401 17.41 3.31169 19.3028L0.223105 22.3913C-0.0743684 22.6888 -0.0743684 23.1711 0.223105 23.4685L2.5314 25.7768C2.82887 26.0743 3.31114 26.0743 3.60861 25.7768L6.69659 22.6888C8.58969 24.0609 11.2593 23.8943 12.964 22.1916C12.964 22.1916 14.6923 20.4623 14.6925 20.462C15.0052 20.1628 14.9812 19.6238 14.6536 19.345ZM9.49994 10.654C10.3467 9.87015 11.5156 11.0379 10.7319 11.8843L8.96126 13.6538L7.72982 12.4231L9.49994 10.654ZM3.07033 24.1609L1.8392 22.9305L4.34711 20.4235L5.57565 21.6536L3.07033 24.1609ZM11.8864 21.1148C10.5918 22.4078 8.48529 22.4078 7.19221 21.1163L4.88585 18.8071C3.59048 17.5133 3.58439 15.4157 4.88691 14.1148L6.07711 12.9232L13.077 19.9228L11.8864 21.1148ZM12.3471 17.0387L14.1137 15.2693C14.4527 14.9304 15.0059 14.9299 15.3453 15.2693C15.6851 15.6091 15.6842 16.1608 15.3454 16.4998L13.5755 18.2686L12.3471 17.0387Z" fill="#0CC405"/>
</svg>
